<?xml version="1.0" standalone="no"?>
<svg version="1.0" xmlns="http://www.w3.org/2000/svg"
 width="500.000000pt" height="500.000000pt" viewBox="0 0 500.000000 500.000000"
 preserveAspectRatio="xMidYMid meet">

<g transform="translate(0.000000,500.000000) scale(0.100000,-0.100000)"
stroke="none">
<path fill="currentColor" d="M1595 4024 c-210 -46 -410 -211 -493 -405 -61 -143 -69 -343 -19
-495 45 -136 83 -183 435 -536 180 -181 329 -328 332 -328 3 0 3 32 2 70 -14
285 198 624 490 784 136 75 276 110 417 105 l92 -4 -353 351 c-383 380 -400
393 -563 444 -94 28 -246 35 -340 14z"/>
<path fill="#57a56f" d="M2568 3110 c-147 -37 -277 -118 -401 -250 -187 -199 -265 -445 -208
-656 l22 -81 427 -424 c335 -334 441 -433 492 -462 300 -173 685 -96 895 178
125 163 172 366 130 565 -40 191 -74 235 -537 697 -372 372 -396 394 -458 419
-90 36 -250 43 -362 14z"/>
</g>
</svg>
