<?xml version="1.0" standalone="no"?>
<svg version="1.0" xmlns="http://www.w3.org/2000/svg"
 width="500.000000pt" height="500.000000pt" viewBox="0 0 500.000000 500.000000"
 preserveAspectRatio="xMidYMid meet">

<g transform="translate(0.000000,500.000000) scale(0.100000,-0.100000)"
fill="#000000" stroke="none">
<path d="M0 2500 l0 -2500 2500 0 2500 0 0 2500 0 2500 -2500 0 -2500 0 0
-2500z m1915 1650 c109 -24 228 -79 314 -143 67 -51 1629 -1606 1674 -1667
175 -238 215 -553 105 -819 -139 -334 -494 -545 -847 -502 -150 19 -258 59
-386 144 -82 54 -1656 1630 -1714 1716 -49 71 -90 157 -117 246 -15 49 -19 91
-18 225 0 153 2 171 28 245 77 224 216 385 422 488 166 84 356 107 539 67z"/>
<path d="M1595 4024 c-210 -46 -410 -211 -493 -405 -61 -143 -69 -343 -19
-495 45 -136 83 -183 435 -536 180 -181 329 -328 332 -328 3 0 3 32 2 70 -14
285 198 624 490 784 136 75 276 110 417 105 l92 -4 -353 351 c-383 380 -400
393 -563 444 -94 28 -246 35 -340 14z"/>
<path d="M2568 3110 c-147 -37 -277 -118 -401 -250 -187 -199 -265 -445 -208
-656 l22 -81 427 -424 c335 -334 441 -433 492 -462 300 -173 685 -96 895 178
125 163 172 366 130 565 -40 191 -74 235 -537 697 -372 372 -396 394 -458 419
-90 36 -250 43 -362 14z"/>
</g>
</svg>
