<svg version="1.0" xmlns="http://www.w3.org/2000/svg"
 width="1024.000000pt" height="580.000000pt" viewBox="0 0 1024.000000 580.000000"
 preserveAspectRatio="xMidYMid meet">

<g transform="translate(0.000000,580.000000) scale(0.100000,-0.100000)">
<path d="M3305 4719 c-211 -22 -372 -88 -522 -216 -56 -47 -73 -48 -73 -4 0
42 -27 125 -51 155 -11 15 -38 35 -60 46 -37 19 -61 20 -713 20 -604 0 -680
-2 -717 -16 -32 -14 -55 -36 -109 -108 -37 -51 -72 -101 -79 -113 -8 -16 -11
-402 -11 -1486 l0 -1464 28 -40 c15 -22 91 -114 170 -205 98 -115 152 -170
174 -177 20 -7 158 -11 397 -11 348 0 368 1 399 20 18 11 41 34 52 52 19 32
20 52 20 496 0 449 1 463 20 482 18 18 33 20 145 20 156 0 166 -6 185 -121 35
-214 113 -350 389 -678 171 -203 421 -301 766 -301 312 0 532 70 685 216 85
81 130 151 165 251 43 124 55 235 61 583 4 179 10 329 15 334 9 11 44 -17 62
-49 8 -14 14 -152 17 -456 l5 -436 25 -35 c14 -20 66 -82 115 -139 50 -56 112
-128 138 -160 27 -32 62 -62 79 -68 20 -7 146 -11 345 -11 404 0 404 0 413
160 4 68 8 85 21 88 11 2 51 -39 113 -112 64 -76 107 -118 128 -125 49 -17
650 -15 691 3 55 23 66 51 77 198 13 173 19 218 30 218 5 0 71 -73 147 -162
200 -235 205 -240 240 -255 25 -10 109 -13 369 -13 320 0 338 1 369 20 43 27
48 39 54 139 4 50 11 86 18 88 6 2 52 -48 103 -111 63 -78 101 -118 122 -125
20 -7 149 -11 347 -11 355 0 370 3 403 70 16 32 18 78 18 516 0 369 3 484 13
495 6 9 47 37 90 63 215 132 329 310 357 559 7 59 10 350 8 812 l-3 720 -25
42 c-44 74 -261 305 -305 324 -36 17 -72 19 -349 19 -295 0 -312 -1 -353 -21
-48 -23 -96 -93 -108 -155 -3 -19 -10 -34 -15 -34 -6 0 -23 28 -38 63 -32 69
-71 113 -119 133 -40 17 -596 20 -655 4 -55 -16 -104 -76 -118 -146 -6 -33
-15 -72 -19 -89 l-8 -30 -19 33 c-45 80 -93 139 -139 174 -88 68 -100 69 -577
66 l-425 -3 -37 -29 c-41 -31 -72 -87 -82 -149 -9 -54 -30 -44 -70 33 -40 77
-88 125 -141 139 -23 7 -154 11 -331 11 -251 0 -299 -2 -328 -16 -51 -24 -92
-79 -104 -141 -6 -29 -14 -53 -16 -53 -3 0 -16 24 -29 53 -31 70 -70 116 -120
138 -36 17 -70 19 -337 19 -186 0 -307 -4 -325 -11 -62 -23 -98 -76 -114 -167
-16 -89 -14 -88 -76 -32 -111 100 -246 165 -404 195 -103 19 -343 27 -464 14z
m470 -124 c86 -24 212 -87 273 -138 105 -87 183 -224 197 -344 9 -79 13 -1940
4 -2041 -23 -271 -177 -451 -446 -523 -111 -30 -417 -38 -552 -15 -229 40
-392 151 -479 325 -76 151 -73 100 -70 1256 l3 1030 29 70 c16 39 40 87 53
108 89 141 253 246 440 282 107 20 461 14 548 -10z m-1250 -10 l25 -24 0 -346
0 -347 -29 -29 -29 -29 -297 0 c-326 0 -351 -4 -379 -59 -13 -23 -16 -64 -16
-181 l0 -152 29 -29 29 -29 261 0 c248 0 262 -1 281 -20 19 -19 20 -33 20
-315 0 -282 -1 -296 -20 -315 -19 -19 -33 -20 -260 -20 -189 0 -248 -3 -276
-15 -64 -27 -64 -25 -64 -585 l0 -501 -25 -24 -24 -25 -264 0 c-251 0 -264 1
-285 20 l-22 21 2 1490 3 1491 28 24 28 24 630 0 630 0 24 -25z m2436 6 l24
-19 5 -609 c4 -450 8 -613 17 -629 22 -37 82 -83 119 -90 71 -13 162 36 190
103 11 26 14 147 14 623 l0 591 25 24 24 25 251 0 c238 0 251 -1 270 -20 21
-21 21 -27 18 -778 -4 -827 0 -776 -64 -907 -42 -86 -148 -189 -250 -243 -45
-23 -88 -50 -95 -59 -11 -13 -15 -115 -19 -520 l-5 -505 -24 -19 c-22 -18 -42
-19 -290 -19 -255 0 -268 1 -289 20 l-22 21 0 462 c0 282 -4 476 -10 499 -11
38 -33 55 -165 129 -121 67 -224 189 -268 318 -22 66 -22 71 -25 819 l-3 752
25 25 25 25 249 0 c231 0 252 -1 273 -19z m2193 -10 c46 -29 91 -96 111 -166
8 -27 51 -297 95 -600 44 -302 96 -656 115 -785 19 -129 74 -509 122 -844 l88
-608 -24 -19 c-21 -18 -43 -19 -291 -19 -251 0 -269 1 -292 20 -31 24 -33 33
-58 283 -12 111 -25 214 -31 228 -17 43 -46 49 -225 49 -170 0 -195 -5 -215
-42 -6 -11 -21 -129 -34 -261 -21 -223 -24 -242 -45 -259 -20 -16 -46 -18
-296 -18 -261 0 -275 1 -294 20 -11 11 -20 27 -20 36 0 9 31 217 70 462 38
246 97 627 130 847 34 220 85 558 115 750 30 193 70 456 90 585 46 310 52 337
78 355 19 14 72 15 397 13 l375 -3 39 -24z m1027 10 l24 -19 5 -599 c6 -663 3
-635 72 -685 27 -19 46 -23 104 -23 62 0 75 3 108 29 78 59 76 39 76 687 0
568 0 577 21 603 l20 26 264 0 264 0 21 -27 21 -27 -3 -730 -3 -731 -28 -80
c-32 -90 -88 -183 -144 -237 -51 -49 -152 -112 -215 -134 -92 -34 -88 -6 -88
-568 0 -489 0 -490 -22 -513 -21 -23 -22 -23 -290 -23 -255 0 -269 1 -288 20
-19 19 -20 33 -20 513 0 432 -2 495 -16 515 -8 12 -55 42 -102 66 -114 58
-180 112 -230 188 -55 85 -81 169 -92 296 -10 111 -30 976 -30 1258 0 148 2
163 21 188 l20 26 254 0 c234 0 255 -1 276 -19z m-237 -2182 c8 -42 8 -274 -1
-282 -3 -4 -12 -2 -20 4 -23 19 -16 309 7 309 4 0 10 -14 14 -31z"/>
<path d="M3405 3856 c-39 -18 -80 -62 -99 -108 -14 -32 -16 -121 -16 -675 0
-435 4 -651 11 -678 15 -53 73 -110 129 -125 99 -27 190 12 231 97 l23 48 -2
659 c-3 702 -2 684 -51 740 -45 51 -158 72 -226 42z"/>
<path d="M6727 3728 c-21 -21 -26 -54 -70 -453 -26 -236 -50 -448 -53 -471
-10 -68 4 -74 159 -74 152 0 177 9 177 63 0 18 -22 230 -49 472 -49 436 -50
440 -76 462 -33 29 -60 29 -88 1z"/>
</g>
</svg>
